# xmcd CD database file
#
# Track frame offsets:
#	150
#	25307
#	47360
#	64177
#	85242
#	107335
#	123687
#	147427
#	170667
#	191415
#
# Disc length: 2826 seconds
#
# Revision: 0
# Processed by: cddbd v1.5PL3 Copyright (c) Steve Scherf et al.
# Submitted via: CDex 1.50
#
DISCID=860b080a
DTITLE=沢田知可子 - スーパーバリュー沢田知可子
DYEAR=1900
DGENRE=Pop
TTITLE0=恋人と呼ばせて-Let me call your sweet heart-
TTITLE1=片想い
TTITLE2=HAPPY EVER AFTER
TTITLE3=COME INTO MY LIFE
TTITLE4=会いたい
TTITLE5=LIVE ON THE TURF
TTITLE6=Melody
TTITLE7=ふたり
TTITLE8=忘れられない
TTITLE9=幸せになろう
EXTD=
EXTT0=
EXTT1=
EXTT2=
EXTT3=
EXTT4=
EXTT5=
EXTT6=
EXTT7=
EXTT8=
EXTT9=
PLAYORDER=
